<?xml version="1.0" encoding="UTF-8" standalone="no"?>
<!-- Created with Inkscape (http://www.inkscape.org/) -->

<svg
   xmlns:dc="http://purl.org/dc/elements/1.1/"
   xmlns:cc="http://creativecommons.org/ns#"
   xmlns:rdf="http://www.w3.org/1999/02/22-rdf-syntax-ns#"
   xmlns:svg="http://www.w3.org/2000/svg"
   xmlns="http://www.w3.org/2000/svg"
   xmlns:sodipodi="http://sodipodi.sourceforge.net/DTD/sodipodi-0.dtd"
   xmlns:inkscape="http://www.inkscape.org/namespaces/inkscape"
   width="98.157249"
   height="31.093599"
   id="svg2"
   version="1.1"
   inkscape:version="0.47 r22583"
   sodipodi:docname="kmos_logo.svg">
  <defs
     id="defs4">
    <inkscape:perspective
       sodipodi:type="inkscape:persp3d"
       inkscape:vp_x="0 : 15.5468 : 1"
       inkscape:vp_y="0 : 1000 : 0"
       inkscape:vp_z="98.157249 : 15.5468 : 1"
       inkscape:persp3d-origin="49.078625 : 10.364533 : 1"
       id="perspective14" />
    <filter
       inkscape:collect="always"
       id="filter3640">
      <feGaussianBlur
         inkscape:collect="always"
         stdDeviation="0.9683571"
         id="feGaussianBlur3642" />
    </filter>
    <filter
       inkscape:collect="always"
       id="filter3678">
      <feGaussianBlur
         inkscape:collect="always"
         stdDeviation="0.96938136"
         id="feGaussianBlur3680" />
    </filter>
    <filter
       inkscape:collect="always"
       id="filter3706"
       x="-0.019351477"
       width="1.038703"
       y="-0.25773769"
       height="1.5154754">
      <feGaussianBlur
         inkscape:collect="always"
         stdDeviation="0.72482766"
         id="feGaussianBlur3708" />
    </filter>
  </defs>
  <sodipodi:namedview
     id="base"
     pagecolor="#ffffff"
     bordercolor="#666666"
     borderopacity="1.0"
     inkscape:pageopacity="0.0"
     inkscape:pageshadow="2"
     inkscape:zoom="6.2601162"
     inkscape:cx="99.331757"
     inkscape:cy="7.3107112"
     inkscape:document-units="px"
     inkscape:current-layer="layer1"
     showgrid="false"
     inkscape:window-width="1920"
     inkscape:window-height="1173"
     inkscape:window-x="1280"
     inkscape:window-y="0"
     inkscape:window-maximized="1"
     fit-margin-top="0"
     fit-margin-left="0"
     fit-margin-right="0"
     fit-margin-bottom="0" />
  <metadata
     id="metadata7">
    <rdf:RDF>
      <cc:Work
         rdf:about="">
        <dc:format>image/svg+xml</dc:format>
        <dc:type
           rdf:resource="http://purl.org/dc/dcmitype/StillImage" />
        <dc:title />
      </cc:Work>
    </rdf:RDF>
  </metadata>
  <g
     inkscape:label="Layer 1"
     inkscape:groupmode="layer"
     id="layer1"
     transform="translate(-226.48996,-321.83499)">
    <g
       id="g3656"
       style="filter:url(#filter3678)">
      <path
         d="m 295.11914,333.00671 c -1.92709,2e-5 -3.45053,0.75523 -4.57031,2.26563 -1.1198,1.49741 -1.6797,3.5547 -1.67969,6.17187 -1e-5,2.6172 0.55338,4.681 1.66016,6.19141 1.11978,1.4974 2.64973,2.2461 4.58984,2.24609 1.91405,10e-6 3.43097,-0.7552 4.55078,-2.26562 1.11978,-1.51041 1.67967,-3.5677 1.67969,-6.17188 -2e-5,-2.59113 -0.55991,-4.64191 -1.67969,-6.15234 -1.11981,-1.52342 -2.63673,-2.28514 -4.55078,-2.28516 m 0,-3.04687 c 3.12499,2e-5 5.57941,1.01565 7.36328,3.04687 1.78383,2.03127 2.67576,4.84377 2.67578,8.4375 -2e-5,3.58074 -0.89195,6.39324 -2.67578,8.4375 -1.78387,2.03125 -4.23829,3.04688 -7.36328,3.04688 -3.13803,0 -5.59896,-1.01563 -7.38281,-3.04688 -1.77084,-2.04426 -2.65625,-4.85676 -2.65625,-8.4375 0,-3.59373 0.88541,-6.40623 2.65625,-8.4375 1.78385,-2.03122 4.24478,-3.04685 7.38281,-3.04687"
         style="font-size:40px;font-style:normal;font-variant:normal;font-weight:normal;font-stretch:normal;line-height:125%;letter-spacing:0px;word-spacing:0px;fill:#000000;fill-opacity:1;stroke:none;font-family:Mallige;-inkscape-font-specification:Mallige"
         id="path3658"
         inkscape:connector-curvature="0" />
      <path
         style="fill:#071236;fill-opacity:1;stroke:#001eff;stroke-width:2.49003863;stroke-linecap:butt;stroke-linejoin:miter;stroke-miterlimit:4;stroke-opacity:1;stroke-dasharray:none"
         d="m 232.29322,340.74392 62.69591,0"
         id="path3660"
         inkscape:connector-curvature="0" />
      <path
         inkscape:connector-curvature="0"
         id="path3662"
         style="font-size:40px;font-style:normal;font-variant:normal;font-weight:normal;font-stretch:normal;line-height:125%;letter-spacing:0px;word-spacing:0px;fill:#000000;fill-opacity:1;stroke:none;font-family:Mallige;-inkscape-font-specification:Mallige"
         d="m 323.47534,331.13171 0,3.39844 c -1.01565,-0.52081 -2.07033,-0.91144 -3.16407,-1.17187 -1.09376,-0.2604 -2.22657,-0.39061 -3.39843,-0.39063 -1.78387,2e-5 -3.12501,0.27346 -4.02344,0.82031 -0.88542,0.5469 -1.32813,1.36721 -1.32813,2.46094 0,0.83335 0.31901,1.4909 0.95703,1.97266 0.63802,0.46876 1.92057,0.91798 3.84766,1.34765 l 1.23047,0.27344 c 2.55207,0.54689 4.36196,1.32163 5.42969,2.32422 1.08071,0.98959 1.62107,2.37631 1.62109,4.16016 -2e-5,2.03125 -0.80731,3.63932 -2.42187,4.82422 -1.60158,1.18489 -3.80861,1.77734 -6.6211,1.77734 -1.17188,0 -2.39584,-0.11719 -3.67187,-0.35156 -1.26303,-0.22136 -2.59766,-0.5599 -4.00391,-1.01563 l 0,-3.71094 c 1.32812,0.69011 2.63671,1.21094 3.92578,1.5625 1.28906,0.33855 2.5651,0.50782 3.82813,0.50782 1.69269,0 2.99478,-0.28646 3.90625,-0.85938 0.91144,-0.58593 1.36717,-1.40624 1.36718,-2.46094 -1e-5,-0.97655 -0.33204,-1.72525 -0.99609,-2.24609 -0.65105,-0.52082 -2.08985,-1.02213 -4.31641,-1.50391 l -1.25,-0.29296 c -2.22656,-0.46874 -3.83464,-1.18489 -4.82421,-2.14844 -0.98959,-0.97655 -1.48438,-2.31119 -1.48438,-4.00391 0,-2.05727 0.72916,-3.64581 2.1875,-4.76562 1.45833,-1.11977 3.52864,-1.67967 6.21094,-1.67969 1.32811,2e-5 2.57811,0.0977 3.75,0.29297 1.17186,0.19533 2.25259,0.4883 3.24219,0.8789" />
      <path
         inkscape:connector-curvature="0"
         id="path3664"
         style="font-size:40px;font-style:normal;font-variant:normal;font-weight:normal;font-stretch:normal;line-height:125%;letter-spacing:0px;word-spacing:0px;fill:#000000;fill-opacity:1;stroke:none;font-family:Mallige;-inkscape-font-specification:Mallige"
         d="m 226.48996,321.97156 3.61328,0 0,17.94922 10.72266,-9.4336 4.58984,0 -11.60156,10.23438 12.08984,11.64062 -4.6875,0 -11.11328,-10.68359 0,10.68359 -3.61328,0 0,-30.39062" />
      <path
         inkscape:connector-curvature="0"
         id="path3666"
         style="font-size:40px;font-style:normal;font-variant:normal;font-weight:normal;font-stretch:normal;line-height:125%;letter-spacing:0px;word-spacing:0px;fill:#000000;fill-opacity:1;stroke:none;font-family:Mallige;-inkscape-font-specification:Mallige"
         d="m 266.20957,334.6864 c 0.89842,-1.61456 1.97264,-2.80597 3.22266,-3.57422 1.24997,-0.7682 2.72133,-1.15232 4.41406,-1.15234 2.27862,2e-5 4.03643,0.8008 5.27344,2.40234 1.23694,1.58856 1.85543,3.85419 1.85547,6.79688 l 0,13.20312 -3.61328,0 0,-13.08593 c -3e-5,-2.09634 -0.37113,-3.65233 -1.11328,-4.66797 -0.74222,-1.01561 -1.87503,-1.52342 -3.39844,-1.52344 -1.86201,2e-5 -3.33336,0.61851 -4.41406,1.85547 -1.08076,1.23699 -1.62112,2.92319 -1.6211,5.05859 l 0,12.36328 -3.61328,0 0,-13.08593 c -2e-5,-2.10936 -0.37111,-3.66535 -1.11328,-4.66797 -0.7422,-1.01561 -1.88804,-1.52342 -3.4375,-1.52344 -1.83595,2e-5 -3.29428,0.62502 -4.375,1.875 -1.08074,1.23699 -1.6211,2.91668 -1.62109,5.03906 l 0,12.36328 -3.61329,0 0,-21.875 3.61329,0 0,3.39844 c 0.8203,-1.34113 1.80337,-2.33071 2.94921,-2.96875 1.14583,-0.638 2.5065,-0.95701 4.08204,-0.95703 1.58852,2e-5 2.93618,0.40367 4.04296,1.21094 1.11978,0.80731 1.9466,1.97918 2.48047,3.51562" />
      <rect
         style="fill:#000000;fill-opacity:1;stroke:#ff0000;stroke-width:0;stroke-linecap:butt;stroke-linejoin:round;stroke-miterlimit:4;stroke-opacity:1;stroke-dasharray:none;stroke-dashoffset:0"
         id="rect3668"
         width="3.581548"
         height="30.6196"
         x="226.49817"
         y="321.83499"
         rx="5.1640401"
         ry="0" />
    </g>
    <g
       id="g3648">
      <path
         inkscape:connector-curvature="0"
         id="path3790"
         style="font-size:40px;font-style:normal;font-variant:normal;font-weight:normal;font-stretch:normal;line-height:125%;letter-spacing:0px;word-spacing:0px;fill:#000000;fill-opacity:1;stroke:none;font-family:Mallige;-inkscape-font-specification:Mallige"
         d="m 295.11914,333.00671 c -1.92709,2e-5 -3.45053,0.75523 -4.57031,2.26563 -1.1198,1.49741 -1.6797,3.5547 -1.67969,6.17187 -1e-5,2.6172 0.55338,4.681 1.66016,6.19141 1.11978,1.4974 2.64973,2.2461 4.58984,2.24609 1.91405,10e-6 3.43097,-0.7552 4.55078,-2.26562 1.11978,-1.51041 1.67967,-3.5677 1.67969,-6.17188 -2e-5,-2.59113 -0.55991,-4.64191 -1.67969,-6.15234 -1.11981,-1.52342 -2.63673,-2.28514 -4.55078,-2.28516 m 0,-3.04687 c 3.12499,2e-5 5.57941,1.01565 7.36328,3.04687 1.78383,2.03127 2.67576,4.84377 2.67578,8.4375 -2e-5,3.58074 -0.89195,6.39324 -2.67578,8.4375 -1.78387,2.03125 -4.23829,3.04688 -7.36328,3.04688 -3.13803,0 -5.59896,-1.01563 -7.38281,-3.04688 -1.77084,-2.04426 -2.65625,-4.85676 -2.65625,-8.4375 0,-3.59373 0.88541,-6.40623 2.65625,-8.4375 1.78385,-2.03122 4.24478,-3.04685 7.38281,-3.04687" />
      <path
         inkscape:connector-curvature="0"
         id="path3763"
         d="m 232.29322,340.74392 62.69591,0"
         style="fill:#071236;fill-opacity:1;stroke:#001eff;stroke-width:2.49003863;stroke-linecap:butt;stroke-linejoin:miter;stroke-miterlimit:4;stroke-opacity:1;stroke-dasharray:none" />
      <path
         d="m 323.47534,331.13171 0,3.39844 c -1.01565,-0.52081 -2.07033,-0.91144 -3.16407,-1.17187 -1.09376,-0.2604 -2.22657,-0.39061 -3.39843,-0.39063 -1.78387,2e-5 -3.12501,0.27346 -4.02344,0.82031 -0.88542,0.5469 -1.32813,1.36721 -1.32813,2.46094 0,0.83335 0.31901,1.4909 0.95703,1.97266 0.63802,0.46876 1.92057,0.91798 3.84766,1.34765 l 1.23047,0.27344 c 2.55207,0.54689 4.36196,1.32163 5.42969,2.32422 1.08071,0.98959 1.62107,2.37631 1.62109,4.16016 -2e-5,2.03125 -0.80731,3.63932 -2.42187,4.82422 -1.60158,1.18489 -3.80861,1.77734 -6.6211,1.77734 -1.17188,0 -2.39584,-0.11719 -3.67187,-0.35156 -1.26303,-0.22136 -2.59766,-0.5599 -4.00391,-1.01563 l 0,-3.71094 c 1.32812,0.69011 2.63671,1.21094 3.92578,1.5625 1.28906,0.33855 2.5651,0.50782 3.82813,0.50782 1.69269,0 2.99478,-0.28646 3.90625,-0.85938 0.91144,-0.58593 1.36717,-1.40624 1.36718,-2.46094 -1e-5,-0.97655 -0.33204,-1.72525 -0.99609,-2.24609 -0.65105,-0.52082 -2.08985,-1.02213 -4.31641,-1.50391 l -1.25,-0.29296 c -2.22656,-0.46874 -3.83464,-1.18489 -4.82421,-2.14844 -0.98959,-0.97655 -1.48438,-2.31119 -1.48438,-4.00391 0,-2.05727 0.72916,-3.64581 2.1875,-4.76562 1.45833,-1.11977 3.52864,-1.67967 6.21094,-1.67969 1.32811,2e-5 2.57811,0.0977 3.75,0.29297 1.17186,0.19533 2.25259,0.4883 3.24219,0.8789"
         style="font-size:40px;font-style:normal;font-variant:normal;font-weight:normal;font-stretch:normal;line-height:125%;letter-spacing:0px;word-spacing:0px;fill:#000000;fill-opacity:1;stroke:none;font-family:Mallige;-inkscape-font-specification:Mallige"
         id="path3772"
         inkscape:connector-curvature="0" />
      <path
         d="m 226.48996,321.97156 3.61328,0 0,17.94922 10.72266,-9.4336 4.58984,0 -11.60156,10.23438 12.08984,11.64062 -4.6875,0 -11.11328,-10.68359 0,10.68359 -3.61328,0 0,-30.39062"
         style="font-size:40px;font-style:normal;font-variant:normal;font-weight:normal;font-stretch:normal;line-height:125%;letter-spacing:0px;word-spacing:0px;fill:#000000;fill-opacity:1;stroke:none;font-family:Mallige;-inkscape-font-specification:Mallige"
         id="path3766"
         inkscape:connector-curvature="0" />
      <path
         d="m 266.20957,334.6864 c 0.89842,-1.61456 1.97264,-2.80597 3.22266,-3.57422 1.24997,-0.7682 2.72133,-1.15232 4.41406,-1.15234 2.27862,2e-5 4.03643,0.8008 5.27344,2.40234 1.23694,1.58856 1.85543,3.85419 1.85547,6.79688 l 0,13.20312 -3.61328,0 0,-13.08593 c -3e-5,-2.09634 -0.37113,-3.65233 -1.11328,-4.66797 -0.74222,-1.01561 -1.87503,-1.52342 -3.39844,-1.52344 -1.86201,2e-5 -3.33336,0.61851 -4.41406,1.85547 -1.08076,1.23699 -1.62112,2.92319 -1.6211,5.05859 l 0,12.36328 -3.61328,0 0,-13.08593 c -2e-5,-2.10936 -0.37111,-3.66535 -1.11328,-4.66797 -0.7422,-1.01561 -1.88804,-1.52342 -3.4375,-1.52344 -1.83595,2e-5 -3.29428,0.62502 -4.375,1.875 -1.08074,1.23699 -1.6211,2.91668 -1.62109,5.03906 l 0,12.36328 -3.61329,0 0,-21.875 3.61329,0 0,3.39844 c 0.8203,-1.34113 1.80337,-2.33071 2.94921,-2.96875 1.14583,-0.638 2.5065,-0.95701 4.08204,-0.95703 1.58852,2e-5 2.93618,0.40367 4.04296,1.21094 1.11978,0.80731 1.9466,1.97918 2.48047,3.51562"
         style="font-size:40px;font-style:normal;font-variant:normal;font-weight:normal;font-stretch:normal;line-height:125%;letter-spacing:0px;word-spacing:0px;fill:#000000;fill-opacity:1;stroke:none;font-family:Mallige;-inkscape-font-specification:Mallige"
         id="path3768"
         inkscape:connector-curvature="0" />
      <rect
         ry="0"
         rx="5.1640401"
         y="321.83499"
         x="226.49817"
         height="30.6196"
         width="3.581548"
         id="rect3780"
         style="fill:#000000;fill-opacity:1;stroke:#ff0000;stroke-width:0;stroke-linecap:butt;stroke-linejoin:round;stroke-miterlimit:4;stroke-opacity:1;stroke-dasharray:none;stroke-dashoffset:0" />
    </g>
    <text
       id="text3686"
       y="327.05032"
       x="233.28925"
       style="font-size:7.17263030999999973px;font-style:normal;font-variant:normal;font-weight:normal;font-stretch:normal;fill:#000000;fill-opacity:1;stroke:none;font-family:TUM Neue Helvetica;-inkscape-font-specification:TUM Neue Helvetica;filter:url(#filter3706)"
       xml:space="preserve"><tspan
         y="327.05032"
         x="233.28925"
         id="tspan3688"
         sodipodi:role="line">mhoffman.github.com/kmos</tspan></text>
    <text
       xml:space="preserve"
       style="font-size:7.17263031px;font-style:normal;font-variant:normal;font-weight:normal;font-stretch:normal;fill:#000000;fill-opacity:1;stroke:none;font-family:TUM Neue Helvetica;-inkscape-font-specification:TUM Neue Helvetica"
       x="233.28925"
       y="327.05032"
       id="text3682"><tspan
         sodipodi:role="line"
         id="tspan3684"
         x="233.28925"
         y="327.05032">mhoffman.github.com/kmos</tspan></text>
  </g>
</svg>
