<?xml version="1.0" encoding="UTF-8" standalone="no"?>
<!-- Created with Inkscape (http://www.inkscape.org/) -->

<svg
   xmlns:dc="http://purl.org/dc/elements/1.1/"
   xmlns:cc="http://creativecommons.org/ns#"
   xmlns:rdf="http://www.w3.org/1999/02/22-rdf-syntax-ns#"
   xmlns:svg="http://www.w3.org/2000/svg"
   xmlns="http://www.w3.org/2000/svg"
   xmlns:sodipodi="http://sodipodi.sourceforge.net/DTD/sodipodi-0.dtd"
   xmlns:inkscape="http://www.inkscape.org/namespaces/inkscape"
   width="744.09448819"
   height="1052.3622047"
   id="svg2"
   version="1.1"
   inkscape:version="0.48.2 r9819"
   sodipodi:docname="logos.svg">
  <defs
     id="defs4" />
  <sodipodi:namedview
     id="base"
     pagecolor="#ffffff"
     bordercolor="#666666"
     borderopacity="1.0"
     inkscape:pageopacity="0.0"
     inkscape:pageshadow="2"
     inkscape:zoom="11.313709"
     inkscape:cx="260.31924"
     inkscape:cy="678.41443"
     inkscape:document-units="px"
     inkscape:current-layer="layer1"
     showgrid="false"
     inkscape:window-width="1024"
     inkscape:window-height="573"
     inkscape:window-x="0"
     inkscape:window-y="1"
     inkscape:window-maximized="1" />
  <metadata
     id="metadata7">
    <rdf:RDF>
      <cc:Work
         rdf:about="">
        <dc:format>image/svg+xml</dc:format>
        <dc:type
           rdf:resource="http://purl.org/dc/dcmitype/StillImage" />
        <dc:title></dc:title>
      </cc:Work>
    </rdf:RDF>
  </metadata>
  <g
     inkscape:label="Layer 1"
     inkscape:groupmode="layer"
     id="layer1">
    <g
       style="font-size:40px;font-style:normal;font-variant:normal;font-weight:normal;font-stretch:normal;line-height:125%;letter-spacing:0px;word-spacing:0px;fill:#000000;fill-opacity:1;stroke:none;font-family:Vemana2000;-inkscape-font-specification:Vemana2000"
       id="text2985">
      <path
         d="m 200.77567,264.8287 3.61328,0 0,17.94922 10.72265,-9.43359 c -0.16454,-0.26778 -1.15719,0.28522 -1.48295,0.0321 l 6.69699,-2.75873 0.91571,3.04501 c -0.47022,-0.11814 -0.87277,-0.60965 -1.5399,-0.31841 l -11.60157,10.23437 12.08985,11.64063 2.23053,0 -2.35137,2.22291 -7.20549,-2.31364 2.63883,0.0907 -11.11328,-10.68359 0,10.68359 -3.61328,0 0,-30.39063"
         style="font-family:Vemana2000;-inkscape-font-specification:Vemana2000"
         id="path2990"
         inkscape:connector-curvature="0"
         sodipodi:nodetypes="cccccccccccccccccc" />
      <path
         d="m 241.14676,277.54355 c 0.89841,-1.61457 1.97263,-2.80597 3.22266,-3.57422 1.24997,-0.76821 2.72132,-1.15232 4.41406,-1.15234 2.27861,2e-5 4.03642,0.8008 5.27344,2.40234 1.23694,1.58856 1.85543,3.85418 1.85546,6.79687 l 0,13.20313 -3.61328,0 0,-13.08594 c -3e-5,-2.09634 -0.37112,-3.65232 -1.11328,-4.66797 -0.74222,-1.0156 -1.87503,-1.52341 -3.39844,-1.52343 -1.862,2e-5 -3.33335,0.6185 -4.41406,1.85546 -1.08075,1.237 -1.62111,2.9232 -1.62109,5.0586 l 0,12.36328 -3.61328,0 0,-13.08594 c -2e-5,-2.10936 -0.37111,-3.66535 -1.11328,-4.66797 -0.74221,-1.0156 -1.88804,-1.52341 -3.4375,-1.52343 -1.83595,2e-5 -3.29429,0.62501 -4.375,1.875 -1.08074,1.23699 -1.62111,2.91668 -1.6211,5.03906 l 0,12.36328 -3.61328,0 0,-21.875 -2.20587,0.12437 3.84669,-2.0728 3.88814,2.03134 -1.91568,-0.0829 0,3.39844 c 0.82031,-1.34113 1.80338,-2.33071 2.94922,-2.96875 1.14582,-0.638 2.5065,-0.95701 4.08203,-0.95703 1.58853,2e-5 2.93618,0.40366 4.04297,1.21093 1.11977,0.80732 1.94659,1.97919 2.48047,3.51563"
         style="font-family:Vemana2000;-inkscape-font-specification:Vemana2000"
         id="path2992"
         inkscape:connector-curvature="0"
         sodipodi:nodetypes="csccccccccssccscccscccccccccccc" />
      <path
         d="m 271.57645,275.86386 c -1.9271,2e-5 -3.45053,0.75523 -4.57032,2.26563 -1.11979,1.49741 -1.67969,3.5547 -1.67968,6.17187 -1e-5,2.6172 0.55338,4.681 1.66015,6.19141 1.11979,1.4974 2.64973,2.24609 4.58985,2.24609 1.91404,0 3.43097,-0.7552 4.55078,-2.26562 1.11977,-1.51041 1.67967,-3.5677 1.67969,-6.17188 -2e-5,-2.59113 -0.55992,-4.64191 -1.67969,-6.15234 -1.11981,-1.52342 -2.63674,-2.28514 -4.55078,-2.28516 m 0,-3.04687 c 3.12498,2e-5 5.57941,1.01564 7.36328,3.04687 1.78383,2.03127 2.67576,4.84377 2.67578,8.4375 -2e-5,3.58074 -0.89195,6.39323 -2.67578,8.4375 -1.78387,2.03125 -4.2383,3.04688 -7.36328,3.04688 -3.13803,0 -5.59897,-1.01563 -7.38282,-3.04688 -1.77083,-2.04427 -2.65625,-4.85676 -2.65625,-8.4375 0,-3.59373 0.88542,-6.40623 2.65625,-8.4375 1.78385,-2.03123 4.24479,-3.04685 7.38282,-3.04687"
         style="font-family:Vemana2000;-inkscape-font-specification:Vemana2000"
         id="path2994" />
      <path
         d="m 301.49832,273.98886 0,3.39844 c -1.01564,-0.52082 -2.07033,-0.91144 -3.16406,-1.17188 -1.09376,-0.26039 -2.22658,-0.3906 -3.39844,-0.39062 -1.78386,2e-5 -3.12501,0.27346 -4.02344,0.82031 -0.88542,0.54689 -1.32813,1.36721 -1.32812,2.46094 -10e-6,0.83335 0.319,1.4909 0.95703,1.97265 0.63801,0.46877 1.92056,0.91799 3.84766,1.34766 l 1.23047,0.27344 c 2.55206,0.54689 4.36196,1.32162 5.42968,2.32422 1.08071,0.98959 1.62108,2.37631 1.6211,4.16015 -2e-5,2.03126 -0.80731,3.63933 -2.42188,4.82422 -1.60158,1.1849 -3.8086,1.77735 -6.62109,1.77735 -1.17189,0 -2.39584,-0.11719 -3.67188,-0.35157 -1.26302,-0.22135 -2.59766,-0.55989 -4.0039,-1.01562 l 0,-3.71094 c 1.32812,0.69011 2.63671,1.21094 3.92578,1.5625 1.28905,0.33855 2.56509,0.50782 3.82812,0.50781 1.6927,1e-5 2.99478,-0.28645 3.90625,-0.85937 0.91145,-0.58594 1.36718,-1.40625 1.36719,-2.46094 -1e-5,-0.97655 -0.33205,-1.72525 -0.99609,-2.24609 -0.65106,-0.52083 -2.08986,-1.02213 -4.31641,-1.50391 l -1.25,-0.29297 c -2.22657,-0.46874 -3.83464,-1.18488 -4.82422,-2.14844 -0.98958,-0.97654 -1.48438,-2.31118 -1.48437,-4.0039 -1e-5,-2.05728 0.72916,-3.64582 2.1875,-4.76563 1.45832,-1.11977 3.52863,-1.67966 6.21093,-1.67968 1.32812,2e-5 2.57812,0.0977 3.75,0.29296 1.17186,0.19534 2.25259,0.48831 3.24219,0.87891"
         style="font-family:Vemana2000;-inkscape-font-specification:Vemana2000"
         id="path2996" />
    </g>
    <text
       xml:space="preserve"
       style="font-size:40px;font-style:normal;font-variant:normal;font-weight:bold;font-stretch:normal;text-align:start;line-height:125%;letter-spacing:0px;word-spacing:0px;writing-mode:lr-tb;text-anchor:start;fill:#000000;fill-opacity:1;stroke:none;font-family:Sawasdee;-inkscape-font-specification:Sawasdee Bold"
       x="348.81525"
       y="303.28305"
       id="text2998"
       sodipodi:linespacing="125%"><tspan
         sodipodi:role="line"
         id="tspan3000"
         x="348.81525"
         y="303.28305"
         style="font-size:40px;font-style:normal;font-variant:normal;font-weight:bold;font-stretch:normal;text-align:start;line-height:125%;writing-mode:lr-tb;text-anchor:start;font-family:Sawasdee;-inkscape-font-specification:Sawasdee Bold">kmos</tspan></text>
    <text
       xml:space="preserve"
       style="font-size:40px;font-style:normal;font-variant:normal;font-weight:normal;font-stretch:normal;line-height:125%;letter-spacing:0px;word-spacing:0px;fill:#000000;fill-opacity:1;stroke:none;font-family:Mallige;-inkscape-font-specification:Mallige"
       x="355.65152"
       y="836.23547"
       id="text3002"
       sodipodi:linespacing="125%"><tspan
         sodipodi:role="line"
         id="tspan3004"
         x="355.65152"
         y="836.23547" /></text>
    <text
       xml:space="preserve"
       style="font-size:40px;font-style:normal;font-variant:normal;font-weight:normal;font-stretch:normal;line-height:125%;letter-spacing:0px;word-spacing:0px;fill:#000000;fill-opacity:1;stroke:none;font-family:Mallige;-inkscape-font-specification:Mallige"
       x="420.39835"
       y="609.16565"
       id="text3006"
       sodipodi:linespacing="125%"><tspan
         sodipodi:role="line"
         id="tspan3008"
         x="420.39835"
         y="609.16565" /></text>
    <text
       xml:space="preserve"
       style="font-size:40px;font-style:normal;font-variant:normal;font-weight:600;font-stretch:normal;text-align:start;line-height:125%;letter-spacing:0px;word-spacing:0px;writing-mode:lr-tb;text-anchor:start;fill:#000000;fill-opacity:1;stroke:none;font-family:LMSansDemiCond10;-inkscape-font-specification:LMSansDemiCond10 Semi-Bold"
       x="208.58301"
       y="357.68695"
       id="text3010"
       sodipodi:linespacing="125%"><tspan
         sodipodi:role="line"
         id="tspan3012"
         x="208.58301"
         y="357.68695">kmos</tspan></text>
    <text
       xml:space="preserve"
       style="font-size:40px;font-style:normal;font-variant:normal;font-weight:normal;font-stretch:normal;line-height:125%;letter-spacing:0px;word-spacing:0px;fill:#000000;fill-opacity:1;stroke:none;font-family:Mallige;-inkscape-font-specification:Mallige"
       x="338.85715"
       y="351.19131"
       id="text3014"
       sodipodi:linespacing="125%"><tspan
         sodipodi:role="line"
         id="tspan3016"
         x="338.85715"
         y="351.19131"
         style="-inkscape-font-specification:LMSansQuot8;font-family:LMSansQuot8;font-weight:normal;font-style:normal;font-stretch:normal;font-variant:normal;font-size:40px;text-anchor:start;text-align:start;writing-mode:lr;line-height:125%">kmos</tspan></text>
    <path
       style="font-size:40px;font-style:normal;font-variant:normal;font-weight:600;font-stretch:normal;text-align:start;line-height:125%;letter-spacing:0px;word-spacing:0px;writing-mode:lr-tb;text-anchor:start;fill:#000000;fill-opacity:1;stroke:none;font-family:LMSansDemiCond10;-inkscape-font-specification:LMSansDemiCond10 Semi-Bold"
       sodipodi:nodetypes="ccccsscsccsssssssscccscc"
       inkscape:connector-curvature="0"
       id="path3023"
       d="m 228.729,390.07493 c -0.15151,0.003 -0.29903,-0.26791 -0.57903,-0.66791 l -6.2,-9.92 5.44,-5.92 c 0.12875,-0.17672 0.24859,-0.31712 0.52785,-0.3375 0.66795,-0.0487 2.87011,0.0438 2.39807,-0.25747 l -2.34677,-2.20712 -7.81964,1.96024 c -0.81478,0.20425 2.96307,-0.30349 3.04049,0.0819 l -5.36,5.88 0,-13.8 c 0,-1.23999 -0.24,-1.76 -1.76,-1.76 l -0.36,0 c -1.4,0 -1.8,0.36001 -1.8,1.8 l 0,24.16 c 0,1.4 0.36,1.8 1.8,1.8 l 0.24,0 c 1.4,0 1.76,-0.4 1.76,-1.76 l 0,-5 1.68,-1.76 4.92,7.92 c 0.4,0.6 -2.78698,-0.11824 -2.17166,0.0578 l 5.74322,1.64268 1.93156,-2.42415" />
    <path
       inkscape:connector-curvature="0"
       id="path3025"
       style="font-size:40px;font-style:normal;font-variant:normal;font-weight:600;font-stretch:normal;text-align:start;line-height:125%;letter-spacing:0px;word-spacing:0px;writing-mode:lr-tb;text-anchor:start;fill:#000000;fill-opacity:1;stroke:none;font-family:LMSansDemiCond10;-inkscape-font-specification:LMSansDemiCond10 Semi-Bold"
       d="m 256.05698,389.12702 0,-11.92 c 0,-3.47999 -1.2,-5.6 -5.16,-5.6 -2.8,0 -4.52,1.76001 -5.52,3.88 -0.52,-3.51999 -3.24,-3.88 -5.04,-3.88 -3.56,0 -5.08,2.84001 -5.6,4.08 l -0.04,-0.04 0,-2.12 c 0,-1.23999 -0.24,-1.76 -1.76,-1.76 l -0.64,0 c -1.4,0 -1.8,0.36001 -1.8,1.8 l 0,15.52 c 0,1.4 0.36,1.8 1.8,1.8 l 0.88,0 c 1.4,0 1.76,-0.4 1.76,-1.76 l 0,-9.56 c 0,-3.59999 2,-5.4 3.96,-5.4 1.68,0 2.16,1.00001 2.16,3.2 l 0,11.72 c 0,1.4 0.36,1.8 1.8,1.8 l 0.88,0 c 1.4,0 1.76,-0.4 1.76,-1.76 l 0,-9.56 c 0,-3.59999 2,-5.4 3.96,-5.4 1.68,0 2.16,1.00001 2.16,3.2 l 0,11.72 c 0,1.4 0.36,1.8 1.8,1.8 l 0.88,0 c 1.4,0 1.76,-0.4 1.76,-1.76" />
    <path
       inkscape:connector-curvature="0"
       id="path3027"
       style="font-size:40px;font-style:normal;font-variant:normal;font-weight:600;font-stretch:normal;text-align:start;line-height:125%;letter-spacing:0px;word-spacing:0px;writing-mode:lr-tb;text-anchor:start;fill:#000000;fill-opacity:1;stroke:none;font-family:LMSansDemiCond10;-inkscape-font-specification:LMSansDemiCond10 Semi-Bold"
       d="m 273.74723,381.60702 c 0,-1.87999 -0.2,-5.04 -2.08,-7.4 -1.72,-2.19999 -4.32,-2.8 -6.36,-2.8 -2.2,0 -4.8,0.72001 -6.4,2.88 -1.64,2.16 -2.04,4.84001 -2.04,7.32 0,2.16 0.28,4.88001 2.12,7.12 1.24,1.48 3.48,2.56 6.32,2.56 1.76,0 4.4,-0.44 6.2,-2.48 2.12,-2.35999 2.24,-5.6 2.24,-7.2 m -4.44,-0.48 c 0,2.68 0,7.36 -4,7.36 -4,0 -4,-4.68 -4,-7.36 0,-2.67999 0,-7.16 4,-7.16 4,0 4,4.52001 4,7.16" />
    <path
       style="font-size:40px;font-style:normal;font-variant:normal;font-weight:600;font-stretch:normal;text-align:start;line-height:125%;letter-spacing:0px;word-spacing:0px;writing-mode:lr-tb;text-anchor:start;fill:#000000;fill-opacity:1;stroke:none;font-family:LMSansDemiCond10;-inkscape-font-specification:LMSansDemiCond10 Semi-Bold"
       sodipodi:nodetypes="cccsscscscsscsssscsscsc"
       inkscape:connector-curvature="0"
       id="path3029"
       d="m 287.30952,385.28702 c 0,-1.51999 -0.48001,-2.96 -1.48,-4.12 -1.4,-1.55999 -2.68001,-1.84 -4.24,-2.16 -1.76,-0.4 -3.24,-0.72 -3.24,-2.76 0,-1.79999 1,-2.36 2.52,-2.36 2.51999,0 3.80875,0.9325 4.48875,1.5325 0.2,0.16 -0.70522,1.33767 -0.54522,1.33767 0.36,0 1.74793,-0.46516 2.54874,-1.12419 0.08,-0.24 -0.27243,-3.52971 -0.27243,-3.68971 0,-0.32 -0.15048,1.71713 -0.7958,1.02987 -1.24,-0.64 -2.98405,-1.56614 -5.18404,-1.56614 -2.36,0 -6.2,0.56001 -6.2,5.64 0,4.68 4.32,5.64 5.68,5.92 1.55999,0.36 3.28,0.72001 3.28,2.96 0,2.44 -1.72001,2.6 -2.8,2.6 -1.2,0 -3.41387,-0.0686 -4.88,-2.08 -0.18906,-0.25938 0.5298,-0.89242 0.3698,-0.89242 -0.36,0 -3.11882,0.0856 -3.11882,0.20557 -0.04,0.12 0.2514,2.96048 0.56866,3.6922 0.31725,0.73171 0.59716,-0.5163 0.66036,-0.56535 0.25391,-0.19703 1.96,1.48 2.6,1.72 1.87999,0.68 3.36,0.68 3.88,0.68 4.11999,0 6.16,-2.08 6.16,-6" />
  </g>
</svg>
